<svg xmlns="http://www.w3.org/2000/svg" width="215.423" height="47.496" viewBox="0 0 215.423 47.496">
  <g id="Group_5" data-name="Group 5" transform="translate(-103 -100.504)">
    <g id="Group_3" data-name="Group 3">
      <path id="Path_3" data-name="Path 3" d="M127.955,137.419a.329.329,0,0,1-.143-.033l-24.637-12.33a.318.318,0,0,1,0-.568l24.637-12.33a.329.329,0,0,1,.143-.033.322.322,0,0,1,.167.047.318.318,0,0,1,.15.27v3.94a.318.318,0,0,1-.176.285l-16.255,8.085,16.257,8.192a.318.318,0,0,1,.174.284V137.1a.318.318,0,0,1-.15.27A.322.322,0,0,1,127.955,137.419Z" fill="#069aff"/>
      <path id="Path_4" data-name="Path 4" d="M134.993,138.481a.317.317,0,0,1-.272-.48l22.4-37.343a.316.316,0,0,1,.272-.154H161.4a.318.318,0,0,1,.273.48L139.4,138.326a.315.315,0,0,1-.272.155Z" fill="#069aff"/>
      <path id="Path_5" data-name="Path 5" d="M188.649,137.419a.316.316,0,0,1-.269-.15l-9.226-14.814h-4.088V137.1a.317.317,0,0,1-.318.317h-4.582a.316.316,0,0,1-.317-.317V101.884a.317.317,0,0,1,.317-.318h9.408a18.564,18.564,0,0,1,6.91.967A7.623,7.623,0,0,1,190,105.5a7.914,7.914,0,0,1,1.244,4.264,11.706,11.706,0,0,1-.819,4.232,12.98,12.98,0,0,1-2.245,3.778,14.56,14.56,0,0,1-3.826,2.995l10.03,16.165a.317.317,0,0,1-.27.485Zm-7.562-19.14a10.919,10.919,0,0,0,3.06-2.291,8.888,8.888,0,0,0,1.54-2.521,7.23,7.23,0,0,0,.52-2.64,4.464,4.464,0,0,0-1.686-3.693c-1.14-.923-3.273-1.391-6.342-1.391h-3.113v12.536Z" fill="#fff"/>
      <path id="Path_6" data-name="Path 6" d="M198.854,148a15.768,15.768,0,0,1-3.525-.362.319.319,0,0,1-.246-.31v-3.719a.317.317,0,0,1,.318-.317.341.341,0,0,1,.1.014,10.807,10.807,0,0,0,3.247.539,7.671,7.671,0,0,0,3.477-.763,7.515,7.515,0,0,0,2.776-2.7,18.218,18.218,0,0,0,1.839-3.435l.328-.848-11.65-24.2a.317.317,0,0,1,.286-.455h4.649a.319.319,0,0,1,.285.177L209.763,130l7.546-18.363a.317.317,0,0,1,.294-.2h4.228a.317.317,0,0,1,.293.439l-9.829,23.553c-2.075,4.995-4.088,8.371-5.982,10.033A10.945,10.945,0,0,1,198.854,148Z" fill="#fff"/>
      <path id="Path_7" data-name="Path 7" d="M233.119,138.128a7.942,7.942,0,0,1-5.945-2.848c-1.73-1.882-2.607-4.761-2.607-8.56a18.211,18.211,0,0,1,1.7-8,14.49,14.49,0,0,1,4.6-5.587,12.038,12.038,0,0,1,7.146-2.073,36.57,36.57,0,0,1,3.665.267c.252.03.618.066,1.1.11h4.2a.317.317,0,0,1,.318.317v17.908a23.871,23.871,0,0,0,.935,7.337.318.318,0,0,1-.3.418h-4.4a.319.319,0,0,1-.309-.245,36.845,36.845,0,0,1-.7-4.814,13.794,13.794,0,0,1-4.26,4.107A10.235,10.235,0,0,1,233.119,138.128Zm5.446-22.889a7.952,7.952,0,0,0-6.256,2.911,11.935,11.935,0,0,0-2.525,8.016,9.232,9.232,0,0,0,1.355,5.489,3.693,3.693,0,0,0,2.976,1.787,6.824,6.824,0,0,0,4.147-1.919,18.874,18.874,0,0,0,4.169-5.219V115.765A15.945,15.945,0,0,0,238.565,115.239Z" fill="#fff"/>
      <path id="Path_8" data-name="Path 8" d="M270.882,137.419a.317.317,0,0,1-.317-.317V122.426a20.558,20.558,0,0,0-.34-4.744,3.541,3.541,0,0,0-1.19-1.76,2.881,2.881,0,0,0-1.849-.683,7.438,7.438,0,0,0-4.579,2.041,16.818,16.818,0,0,0-4.091,5.113V137.1a.317.317,0,0,1-.317.317h-4.228a.317.317,0,0,1-.318-.317V111.756a.317.317,0,0,1,.318-.317H258.2a.317.317,0,0,1,.317.317v4.481a14.358,14.358,0,0,1,3.882-3.795,9.693,9.693,0,0,1,5.3-1.712,7.7,7.7,0,0,1,4.268,1.247,6.767,6.767,0,0,1,2.7,3.273c.513,1.333.763,3.847.763,7.685V137.1a.317.317,0,0,1-.318.317Z" fill="#fff"/>
    </g>
    <g id="Group_4" data-name="Group 4">
      <path id="Path_9" data-name="Path 9" d="M297.287,139.772A15.244,15.244,0,0,1,289.013,137a17.5,17.5,0,0,1-5.366-6.656,18.55,18.55,0,0,1,0-16.773,17.5,17.5,0,0,1,5.366-6.657,15.46,15.46,0,0,1,8.272-2.805h.021a.317.317,0,0,1,.318.317v2.71a.319.319,0,0,1-.288.317,11.132,11.132,0,0,0-6.072,2.379,14.262,14.262,0,0,0-4.018,5.253,16.863,16.863,0,0,0,0,13.736,14.188,14.188,0,0,0,4.017,5.253,11.282,11.282,0,0,0,6.074,2.388.318.318,0,0,1,.287.316v2.676a.319.319,0,0,1-.318.318Z" fill="#069aff"/>
      <path id="Path_10" data-name="Path 10" d="M302.76,139.773a.317.317,0,0,1-.317-.318v-2.676a.317.317,0,0,1,.286-.316,11.279,11.279,0,0,0,6.074-2.388,14.279,14.279,0,0,0,4.026-5.254,16.774,16.774,0,0,0,0-13.734,14.353,14.353,0,0,0-4.027-5.254,11.127,11.127,0,0,0-6.072-2.379.318.318,0,0,1-.287-.317v-2.71a.315.315,0,0,1,.317-.317h.021a15.5,15.5,0,0,1,8.28,2.805,17.4,17.4,0,0,1,5.367,6.658,18.621,18.621,0,0,1,0,16.771A17.4,17.4,0,0,1,311.061,137a15.289,15.289,0,0,1-8.282,2.771Z" fill="#069aff"/>
    </g>
  </g>
</svg>
